<svg width="32" height="32" viewBox="0 0 32 32" fill="none" xmlns="http://www.w3.org/2000/svg">
<path d="M3.12534 20.3614L5.792 24.9747C5.96904 25.2807 6.26036 25.5039 6.60191 25.5951C6.94345 25.6864 7.30726 25.6383 7.61334 25.4614L9.47467 24.3867C10.248 24.996 11.1027 25.496 12.0013 25.8694V28C12.0013 28.3536 12.1418 28.6928 12.3919 28.9428C12.6419 29.1929 12.981 29.3334 13.3347 29.3334H18.668C19.0216 29.3334 19.3608 29.1929 19.6108 28.9428C19.8609 28.6928 20.0013 28.3536 20.0013 28V25.8694C20.907 25.4923 21.7571 24.9935 22.528 24.3867L24.3893 25.4614C25.0253 25.828 25.844 25.608 26.2107 24.9747L28.8773 20.3614C29.0528 20.0549 29.1001 19.6916 29.009 19.3505C28.9178 19.0094 28.6956 18.7181 28.3907 18.54L26.5613 17.4827C26.7043 16.4993 26.7034 15.5004 26.5587 14.5174L28.388 13.46C29.0227 13.0934 29.2427 12.2734 28.8747 11.6387L26.208 7.02535C26.031 6.71935 25.7396 6.49618 25.3981 6.40492C25.0566 6.31366 24.6927 6.36177 24.3867 6.53869L22.5253 7.61335C21.7554 7.00586 20.9057 6.50698 20 6.13069V4.00002C20 3.6464 19.8595 3.30726 19.6095 3.05721C19.3594 2.80716 19.0203 2.66669 18.6667 2.66669H13.3333C12.9797 2.66669 12.6406 2.80716 12.3905 3.05721C12.1405 3.30726 12 3.6464 12 4.00002V6.13069C11.0943 6.50777 10.2443 7.00658 9.47334 7.61335L7.61334 6.53869C7.46183 6.45091 7.2945 6.39387 7.12092 6.37082C6.94734 6.34778 6.77093 6.35918 6.60176 6.40439C6.4326 6.44959 6.27401 6.5277 6.13506 6.63425C5.99611 6.7408 5.87954 6.8737 5.792 7.02535L3.12534 11.6387C2.94985 11.9451 2.90253 12.3084 2.99369 12.6496C3.08484 12.9907 3.30707 13.282 3.612 13.46L5.44134 14.5174C5.29752 15.5006 5.29752 16.4995 5.44134 17.4827L3.612 18.54C2.97734 18.9067 2.75734 19.7267 3.12534 20.3614ZM16 10.6667C18.9413 10.6667 21.3333 13.0587 21.3333 16C21.3333 18.9414 18.9413 21.3334 16 21.3334C13.0587 21.3334 10.6667 18.9414 10.6667 16C10.6667 13.0587 13.0587 10.6667 16 10.6667Z" fill="#FF4C29"/>
</svg>
