<svg width="32" height="32" viewBox="0 0 32 32" fill="none" xmlns="http://www.w3.org/2000/svg">
<path d="M4.57733 23.1L4.10533 26.4C4.07616 26.6048 4.09506 26.8136 4.16053 27.0099C4.22599 27.2061 4.33624 27.3845 4.48253 27.5308C4.62883 27.6771 4.80717 27.7873 5.00343 27.8528C5.19969 27.9183 5.4085 27.9371 5.61333 27.908L8.91333 27.436C9.41333 27.3653 10.6667 24 10.6667 24C10.6667 24 11.296 24.54 11.5533 24.6213C12.1027 24.7946 12.6373 24.256 12.8173 23.7093L13.3333 21.3466C13.3333 21.3466 14.1027 21.736 14.3813 21.7933C14.736 21.8666 15.08 21.648 15.324 21.4026C15.4706 21.2565 15.5807 21.0779 15.6453 20.8813L16 18.68C16 18.68 16.9 18.9293 17.208 18.9653C17.5587 19.0053 17.9 18.8266 18.1507 18.5746L19.668 17.0586C20.9524 17.4749 22.3267 17.5285 23.6397 17.2138C24.9526 16.899 26.1533 16.228 27.1093 15.2746C28.4822 13.8982 29.2532 12.0334 29.2532 10.0893C29.2532 8.14521 28.4822 6.28045 27.1093 4.90398C25.7329 3.53107 23.8681 2.76007 21.924 2.76007C19.9799 2.76007 18.1151 3.53107 16.7387 4.90398C15.7851 5.85988 15.1139 7.06049 14.7991 8.3735C14.4843 9.68652 14.5382 11.0609 14.9547 12.3453L4.95333 22.3453C4.74919 22.5492 4.61717 22.8142 4.57733 23.1ZM24.672 7.34131C25.3994 8.07087 25.8079 9.05908 25.8079 10.0893C25.8079 11.1195 25.3994 12.1078 24.672 12.8373L19.176 7.34131C19.9056 6.6139 20.8938 6.20543 21.924 6.20543C22.9542 6.20543 23.9424 6.6139 24.672 7.34131Z" fill="#FF4C29"/>
</svg>
