<svg width="44" height="43" viewBox="0 0 44 43" fill="none" xmlns="http://www.w3.org/2000/svg">
<path d="M36.2222 5.66663H13.1111C11.1502 5.66663 9.55556 7.26129 9.55556 9.22218V12.7777H7.77778C5.8169 12.7777 4.22223 14.3724 4.22223 16.3333V34.1111C4.22223 36.072 5.8169 37.6666 7.77778 37.6666H18.4445C20.4053 37.6666 22 36.072 22 34.1111H36.2222C38.1831 34.1111 39.7778 32.5164 39.7778 30.5555V9.22218C39.7778 7.26129 38.1831 5.66663 36.2222 5.66663ZM11.3333 16.3333H18.4445L18.4391 32.3333H7.77778V16.3333H11.3333ZM22 30.5555V16.3333C22 14.3724 20.4053 12.7777 18.4445 12.7777H13.1111V9.22218H32.6667V30.5555H22Z" fill="#FF4C29"/>
</svg>
