<svg width="44" height="43" viewBox="0 0 44 43" fill="none" xmlns="http://www.w3.org/2000/svg">
<path d="M36.6667 5.66663H8.22223C6.26134 5.66663 4.66667 7.26129 4.66667 9.22218V34.1111C4.66667 36.072 6.26134 37.6666 8.22223 37.6666H36.6667C38.6276 37.6666 40.2222 36.072 40.2222 34.1111V9.22218C40.2222 7.26129 38.6276 5.66663 36.6667 5.66663ZM8.22223 34.1111V12.7777H36.6667L36.6702 34.1111H8.22223Z" fill="#FF4C29"/>
<path d="M17.9236 16.8541L11.3333 23.4443L17.9236 30.0346L20.4373 27.5208L16.3609 23.4443L20.4373 19.3679L17.9236 16.8541ZM27.5485 16.8541L25.0347 19.3679L29.1111 23.4443L25.0347 27.5208L27.5485 30.0346L34.1387 23.4443L27.5485 16.8541Z" fill="#FF4C29"/>
</svg>
